<mxfile host="app.diagrams.net" agent="Mozilla/5.0 (Windows NT 10.0; Win64; x64) AppleWebKit/537.36 (KHTML, like Gecko) Chrome/135.0.0.0 Safari/537.36" version="27.0.2" pages="2">
  <diagram name="Activity" id="CnRIhu4_Dvk9qn2RLd_8">
    <mxGraphModel dx="1026" dy="547" grid="1" gridSize="10" guides="1" tooltips="1" connect="1" arrows="1" fold="1" page="1" pageScale="1" pageWidth="827" pageHeight="1169" math="0" shadow="0">
      <root>
        <mxCell id="0" />
        <mxCell id="1" parent="0" />
        <mxCell id="at0MgcM4xQSq5phe534F-1" value="system" style="swimlane;whiteSpace=wrap;html=1;" vertex="1" parent="1">
          <mxGeometry x="350" y="60" width="230" height="820" as="geometry" />
        </mxCell>
        <mxCell id="at0MgcM4xQSq5phe534F-2" value="tampilan login" style="rounded=1;whiteSpace=wrap;html=1;" vertex="1" parent="at0MgcM4xQSq5phe534F-1">
          <mxGeometry x="62" y="150" width="120" height="60" as="geometry" />
        </mxCell>
        <mxCell id="at0MgcM4xQSq5phe534F-12" value="user" style="swimlane;whiteSpace=wrap;html=1;startSize=23;" vertex="1" parent="at0MgcM4xQSq5phe534F-1">
          <mxGeometry x="-230" width="230" height="820" as="geometry" />
        </mxCell>
        <mxCell id="at0MgcM4xQSq5phe534F-4" value="" style="endArrow=classic;html=1;rounded=0;exitX=0.5;exitY=1;exitDx=0;exitDy=0;" edge="1" parent="at0MgcM4xQSq5phe534F-12" source="at0MgcM4xQSq5phe534F-13">
          <mxGeometry width="50" height="50" relative="1" as="geometry">
            <mxPoint x="245" y="130" as="sourcePoint" />
            <mxPoint x="115" y="150" as="targetPoint" />
          </mxGeometry>
        </mxCell>
        <mxCell id="at0MgcM4xQSq5phe534F-13" value="" style="ellipse;whiteSpace=wrap;html=1;aspect=fixed;fillColor=#000000;" vertex="1" parent="at0MgcM4xQSq5phe534F-12">
          <mxGeometry x="95" y="60" width="40" height="40" as="geometry" />
        </mxCell>
        <mxCell id="XCGYx5bU0b4vUzlNKkGI-1" value="Membuka Aplikasi" style="rounded=1;whiteSpace=wrap;html=1;" vertex="1" parent="at0MgcM4xQSq5phe534F-12">
          <mxGeometry x="55" y="150" width="120" height="60" as="geometry" />
        </mxCell>
        <mxCell id="at0MgcM4xQSq5phe534F-14" value="&lt;font style=&quot;font-size: 10px;&quot;&gt;punya akun&amp;nbsp;&lt;/font&gt;&lt;div&gt;&lt;font style=&quot;font-size: 10px;&quot;&gt;atau tidak&lt;/font&gt;&lt;/div&gt;" style="rhombus;whiteSpace=wrap;html=1;" vertex="1" parent="at0MgcM4xQSq5phe534F-12">
          <mxGeometry x="65" y="290" width="100" height="90" as="geometry" />
        </mxCell>
        <mxCell id="at0MgcM4xQSq5phe534F-15" value="masukan id dan pw" style="rounded=1;whiteSpace=wrap;html=1;" vertex="1" parent="at0MgcM4xQSq5phe534F-12">
          <mxGeometry x="55" y="530" width="120" height="60" as="geometry" />
        </mxCell>
        <mxCell id="at0MgcM4xQSq5phe534F-16" value="isi data" style="rounded=1;whiteSpace=wrap;html=1;" vertex="1" parent="at0MgcM4xQSq5phe534F-12">
          <mxGeometry x="55" y="420" width="120" height="60" as="geometry" />
        </mxCell>
        <mxCell id="at0MgcM4xQSq5phe534F-17" value="yes" style="html=1;verticalAlign=bottom;endArrow=block;curved=0;rounded=0;exitX=0;exitY=0.5;exitDx=0;exitDy=0;entryX=0;entryY=0.5;entryDx=0;entryDy=0;" edge="1" parent="at0MgcM4xQSq5phe534F-12" source="at0MgcM4xQSq5phe534F-14" target="at0MgcM4xQSq5phe534F-15">
          <mxGeometry width="80" relative="1" as="geometry">
            <mxPoint x="45" y="335" as="sourcePoint" />
            <mxPoint x="35" y="560" as="targetPoint" />
            <Array as="points">
              <mxPoint x="35" y="335" />
              <mxPoint x="35" y="450" />
              <mxPoint x="35" y="560" />
            </Array>
          </mxGeometry>
        </mxCell>
        <mxCell id="at0MgcM4xQSq5phe534F-18" value="" style="endArrow=classic;html=1;rounded=0;exitX=0.5;exitY=1;exitDx=0;exitDy=0;entryX=0.5;entryY=0;entryDx=0;entryDy=0;" edge="1" parent="at0MgcM4xQSq5phe534F-12" source="at0MgcM4xQSq5phe534F-16" target="at0MgcM4xQSq5phe534F-15">
          <mxGeometry width="50" height="50" relative="1" as="geometry">
            <mxPoint x="165" y="510" as="sourcePoint" />
            <mxPoint x="215" y="460" as="targetPoint" />
          </mxGeometry>
        </mxCell>
        <mxCell id="at0MgcM4xQSq5phe534F-19" value="dashboard" style="rounded=1;whiteSpace=wrap;html=1;" vertex="1" parent="at0MgcM4xQSq5phe534F-12">
          <mxGeometry x="55" y="655" width="120" height="60" as="geometry" />
        </mxCell>
        <mxCell id="at0MgcM4xQSq5phe534F-20" value="" style="ellipse;html=1;shape=endState;fillColor=#000000;strokeColor=#ff0000;" vertex="1" parent="at0MgcM4xQSq5phe534F-12">
          <mxGeometry x="100" y="750" width="30" height="30" as="geometry" />
        </mxCell>
        <mxCell id="at0MgcM4xQSq5phe534F-21" value="" style="endArrow=classic;html=1;rounded=0;exitX=0.5;exitY=1;exitDx=0;exitDy=0;entryX=0.5;entryY=0;entryDx=0;entryDy=0;" edge="1" parent="at0MgcM4xQSq5phe534F-12" source="at0MgcM4xQSq5phe534F-19" target="at0MgcM4xQSq5phe534F-20">
          <mxGeometry width="50" height="50" relative="1" as="geometry">
            <mxPoint x="135" y="800" as="sourcePoint" />
            <mxPoint x="185" y="750" as="targetPoint" />
          </mxGeometry>
        </mxCell>
        <mxCell id="XCGYx5bU0b4vUzlNKkGI-2" value="" style="endArrow=classic;html=1;rounded=0;exitX=1;exitY=0.5;exitDx=0;exitDy=0;entryX=0;entryY=0.5;entryDx=0;entryDy=0;" edge="1" parent="at0MgcM4xQSq5phe534F-1" source="XCGYx5bU0b4vUzlNKkGI-1" target="at0MgcM4xQSq5phe534F-2">
          <mxGeometry width="50" height="50" relative="1" as="geometry">
            <mxPoint x="60" y="240" as="sourcePoint" />
            <mxPoint x="110" y="190" as="targetPoint" />
          </mxGeometry>
        </mxCell>
        <mxCell id="at0MgcM4xQSq5phe534F-10" value="tidak" style="html=1;verticalAlign=bottom;endArrow=block;curved=0;rounded=0;exitX=1;exitY=0.5;exitDx=0;exitDy=0;entryX=1;entryY=0.5;entryDx=0;entryDy=0;" edge="1" parent="at0MgcM4xQSq5phe534F-1" source="at0MgcM4xQSq5phe534F-7" target="at0MgcM4xQSq5phe534F-2">
          <mxGeometry width="80" relative="1" as="geometry">
            <mxPoint x="54" y="172" as="sourcePoint" />
            <mxPoint x="194" y="170" as="targetPoint" />
            <Array as="points">
              <mxPoint x="210" y="685" />
              <mxPoint x="210" y="310" />
              <mxPoint x="210" y="180" />
            </Array>
          </mxGeometry>
        </mxCell>
        <mxCell id="XCGYx5bU0b4vUzlNKkGI-3" value="" style="endArrow=classic;html=1;rounded=0;entryX=0.5;entryY=0;entryDx=0;entryDy=0;exitX=0.5;exitY=1;exitDx=0;exitDy=0;" edge="1" parent="at0MgcM4xQSq5phe534F-1" source="at0MgcM4xQSq5phe534F-2" target="at0MgcM4xQSq5phe534F-14">
          <mxGeometry width="50" height="50" relative="1" as="geometry">
            <mxPoint x="120" y="220" as="sourcePoint" />
            <mxPoint x="-115" y="380" as="targetPoint" />
            <Array as="points">
              <mxPoint x="122" y="240" />
              <mxPoint x="5" y="240" />
              <mxPoint x="-115" y="240" />
            </Array>
          </mxGeometry>
        </mxCell>
        <mxCell id="at0MgcM4xQSq5phe534F-3" value="registrasi akun" style="rounded=1;whiteSpace=wrap;html=1;" vertex="1" parent="at0MgcM4xQSq5phe534F-1">
          <mxGeometry x="64" y="305" width="120" height="60" as="geometry" />
        </mxCell>
        <mxCell id="at0MgcM4xQSq5phe534F-23" value="tidak" style="html=1;verticalAlign=bottom;endArrow=block;curved=0;rounded=0;exitX=1;exitY=0.5;exitDx=0;exitDy=0;entryX=0;entryY=0.5;entryDx=0;entryDy=0;" edge="1" parent="at0MgcM4xQSq5phe534F-1" source="at0MgcM4xQSq5phe534F-14" target="at0MgcM4xQSq5phe534F-3">
          <mxGeometry width="80" relative="1" as="geometry">
            <mxPoint x="-65" y="325" as="sourcePoint" />
            <mxPoint x="65" y="315" as="targetPoint" />
          </mxGeometry>
        </mxCell>
        <mxCell id="at0MgcM4xQSq5phe534F-6" value="" style="endArrow=classic;html=1;rounded=0;entryX=0.5;entryY=0;entryDx=0;entryDy=0;exitX=0.5;exitY=1;exitDx=0;exitDy=0;" edge="1" parent="at0MgcM4xQSq5phe534F-1" target="at0MgcM4xQSq5phe534F-16" source="at0MgcM4xQSq5phe534F-3">
          <mxGeometry width="50" height="50" relative="1" as="geometry">
            <mxPoint x="120" y="370" as="sourcePoint" />
            <mxPoint x="-105" y="440" as="targetPoint" />
            <Array as="points">
              <mxPoint x="124" y="390" />
              <mxPoint x="-115" y="390" />
            </Array>
          </mxGeometry>
        </mxCell>
        <mxCell id="at0MgcM4xQSq5phe534F-5" value="check id dan pw" style="rounded=1;whiteSpace=wrap;html=1;" vertex="1" parent="at0MgcM4xQSq5phe534F-1">
          <mxGeometry x="55" y="530" width="120" height="60" as="geometry" />
        </mxCell>
        <mxCell id="at0MgcM4xQSq5phe534F-7" value="sukses&lt;div&gt;&lt;br&gt;&lt;/div&gt;" style="rhombus;whiteSpace=wrap;html=1;" vertex="1" parent="at0MgcM4xQSq5phe534F-1">
          <mxGeometry x="65" y="640" width="100" height="90" as="geometry" />
        </mxCell>
        <mxCell id="at0MgcM4xQSq5phe534F-9" value="" style="endArrow=classic;html=1;rounded=0;entryX=0.5;entryY=0;entryDx=0;entryDy=0;exitX=0.5;exitY=1;exitDx=0;exitDy=0;" edge="1" parent="at0MgcM4xQSq5phe534F-1" source="at0MgcM4xQSq5phe534F-5" target="at0MgcM4xQSq5phe534F-7">
          <mxGeometry width="50" height="50" relative="1" as="geometry">
            <mxPoint x="100" y="550" as="sourcePoint" />
            <mxPoint x="91" y="589" as="targetPoint" />
          </mxGeometry>
        </mxCell>
        <mxCell id="XCGYx5bU0b4vUzlNKkGI-5" value="" style="endArrow=classic;html=1;rounded=0;exitX=1;exitY=0.5;exitDx=0;exitDy=0;entryX=0;entryY=0.5;entryDx=0;entryDy=0;" edge="1" parent="at0MgcM4xQSq5phe534F-1" source="at0MgcM4xQSq5phe534F-15" target="at0MgcM4xQSq5phe534F-5">
          <mxGeometry width="50" height="50" relative="1" as="geometry">
            <mxPoint x="40" y="600" as="sourcePoint" />
            <mxPoint x="30" y="570" as="targetPoint" />
          </mxGeometry>
        </mxCell>
        <mxCell id="XCGYx5bU0b4vUzlNKkGI-6" value="" style="endArrow=classic;html=1;rounded=0;exitX=0;exitY=0.5;exitDx=0;exitDy=0;entryX=1;entryY=0.5;entryDx=0;entryDy=0;" edge="1" parent="at0MgcM4xQSq5phe534F-1" source="at0MgcM4xQSq5phe534F-7" target="at0MgcM4xQSq5phe534F-19">
          <mxGeometry width="50" height="50" relative="1" as="geometry">
            <mxPoint x="-80" y="670" as="sourcePoint" />
            <mxPoint x="-30" y="620" as="targetPoint" />
          </mxGeometry>
        </mxCell>
        <mxCell id="XCGYx5bU0b4vUzlNKkGI-7" value="Article" style="swimlane;whiteSpace=wrap;html=1;startSize=23;" vertex="1" parent="1">
          <mxGeometry x="690" y="70" width="230" height="940" as="geometry">
            <mxRectangle x="690" y="70" width="70" height="30" as="alternateBounds" />
          </mxGeometry>
        </mxCell>
        <mxCell id="XCGYx5bU0b4vUzlNKkGI-8" value="" style="ellipse;whiteSpace=wrap;html=1;aspect=fixed;fillColor=#000000;" vertex="1" parent="XCGYx5bU0b4vUzlNKkGI-7">
          <mxGeometry x="95" y="60" width="40" height="40" as="geometry" />
        </mxCell>
        <mxCell id="XCGYx5bU0b4vUzlNKkGI-54" value="Membuka Aplikasi" style="rounded=1;whiteSpace=wrap;html=1;" vertex="1" parent="XCGYx5bU0b4vUzlNKkGI-7">
          <mxGeometry x="55" y="140" width="120" height="60" as="geometry" />
        </mxCell>
        <mxCell id="XCGYx5bU0b4vUzlNKkGI-55" value="" style="endArrow=classic;html=1;rounded=0;exitX=0.5;exitY=1;exitDx=0;exitDy=0;entryX=0.5;entryY=0;entryDx=0;entryDy=0;" edge="1" parent="XCGYx5bU0b4vUzlNKkGI-7" source="XCGYx5bU0b4vUzlNKkGI-8" target="XCGYx5bU0b4vUzlNKkGI-54">
          <mxGeometry width="50" height="50" relative="1" as="geometry">
            <mxPoint x="-105" y="169.41" as="sourcePoint" />
            <mxPoint x="55" y="169.41" as="targetPoint" />
          </mxGeometry>
        </mxCell>
        <mxCell id="XCGYx5bU0b4vUzlNKkGI-100" value="Membuka halaman article" style="rounded=1;whiteSpace=wrap;html=1;" vertex="1" parent="XCGYx5bU0b4vUzlNKkGI-7">
          <mxGeometry x="55" y="230" width="120" height="60" as="geometry" />
        </mxCell>
        <mxCell id="XCGYx5bU0b4vUzlNKkGI-9" value="isi data" style="rounded=1;whiteSpace=wrap;html=1;" vertex="1" parent="XCGYx5bU0b4vUzlNKkGI-7">
          <mxGeometry x="55" y="550" width="120" height="60" as="geometry" />
        </mxCell>
        <mxCell id="XCGYx5bU0b4vUzlNKkGI-10" value="click Tambah Data" style="rounded=1;whiteSpace=wrap;html=1;" vertex="1" parent="XCGYx5bU0b4vUzlNKkGI-7">
          <mxGeometry x="55" y="440" width="120" height="60" as="geometry" />
        </mxCell>
        <mxCell id="XCGYx5bU0b4vUzlNKkGI-18" value="upload data" style="rounded=1;whiteSpace=wrap;html=1;" vertex="1" parent="XCGYx5bU0b4vUzlNKkGI-7">
          <mxGeometry x="300" y="550" width="120" height="60" as="geometry" />
        </mxCell>
        <mxCell id="XCGYx5bU0b4vUzlNKkGI-34" value="" style="endArrow=classic;html=1;rounded=0;exitX=0.5;exitY=1;exitDx=0;exitDy=0;entryX=0.5;entryY=0;entryDx=0;entryDy=0;" edge="1" parent="XCGYx5bU0b4vUzlNKkGI-7" source="XCGYx5bU0b4vUzlNKkGI-23">
          <mxGeometry width="50" height="50" relative="1" as="geometry">
            <mxPoint x="350" y="499" as="sourcePoint" />
            <mxPoint x="115" y="550" as="targetPoint" />
            <Array as="points">
              <mxPoint x="360" y="520" />
              <mxPoint x="115" y="520" />
            </Array>
          </mxGeometry>
        </mxCell>
        <mxCell id="XCGYx5bU0b4vUzlNKkGI-50" value="" style="endArrow=classic;html=1;rounded=0;exitX=1;exitY=0.5;exitDx=0;exitDy=0;entryX=0;entryY=0.5;entryDx=0;entryDy=0;" edge="1" parent="XCGYx5bU0b4vUzlNKkGI-7" source="XCGYx5bU0b4vUzlNKkGI-9" target="XCGYx5bU0b4vUzlNKkGI-18">
          <mxGeometry width="50" height="50" relative="1" as="geometry">
            <mxPoint x="185" y="480" as="sourcePoint" />
            <mxPoint x="300" y="479" as="targetPoint" />
          </mxGeometry>
        </mxCell>
        <mxCell id="XCGYx5bU0b4vUzlNKkGI-11" value="Mengedit Data" style="rounded=1;whiteSpace=wrap;html=1;" vertex="1" parent="XCGYx5bU0b4vUzlNKkGI-7">
          <mxGeometry x="55" y="680" width="120" height="60" as="geometry" />
        </mxCell>
        <mxCell id="XCGYx5bU0b4vUzlNKkGI-108" value="Tampilan Edit Data" style="rounded=1;whiteSpace=wrap;html=1;" vertex="1" parent="XCGYx5bU0b4vUzlNKkGI-7">
          <mxGeometry x="300" y="680" width="120" height="60" as="geometry" />
        </mxCell>
        <mxCell id="XCGYx5bU0b4vUzlNKkGI-109" value="" style="endArrow=classic;html=1;rounded=0;exitX=1;exitY=0.5;exitDx=0;exitDy=0;entryX=0;entryY=0.5;entryDx=0;entryDy=0;" edge="1" target="XCGYx5bU0b4vUzlNKkGI-108" parent="XCGYx5bU0b4vUzlNKkGI-7" source="XCGYx5bU0b4vUzlNKkGI-11">
          <mxGeometry width="50" height="50" relative="1" as="geometry">
            <mxPoint x="195" y="711" as="sourcePoint" />
            <mxPoint x="299" y="711" as="targetPoint" />
          </mxGeometry>
        </mxCell>
        <mxCell id="XCGYx5bU0b4vUzlNKkGI-32" value="" style="endArrow=classic;html=1;rounded=0;exitX=0.5;exitY=0;exitDx=0;exitDy=0;entryX=0.5;entryY=1;entryDx=0;entryDy=0;" edge="1" parent="XCGYx5bU0b4vUzlNKkGI-7" source="XCGYx5bU0b4vUzlNKkGI-108" target="XCGYx5bU0b4vUzlNKkGI-9">
          <mxGeometry width="50" height="50" relative="1" as="geometry">
            <mxPoint x="361" y="749" as="sourcePoint" />
            <mxPoint x="361" y="791" as="targetPoint" />
            <Array as="points">
              <mxPoint x="360" y="650" />
              <mxPoint x="115" y="650" />
            </Array>
          </mxGeometry>
        </mxCell>
        <mxCell id="XCGYx5bU0b4vUzlNKkGI-111" value="Memilih" style="shape=rhombus;perimeter=rhombusPerimeter;whiteSpace=wrap;html=1;align=center;" vertex="1" parent="XCGYx5bU0b4vUzlNKkGI-7">
          <mxGeometry x="75" y="350" width="80" height="60" as="geometry" />
        </mxCell>
        <mxCell id="XCGYx5bU0b4vUzlNKkGI-112" value="" style="endArrow=classic;html=1;rounded=0;exitX=0.5;exitY=1;exitDx=0;exitDy=0;entryX=0.5;entryY=0;entryDx=0;entryDy=0;" edge="1" parent="XCGYx5bU0b4vUzlNKkGI-7" source="XCGYx5bU0b4vUzlNKkGI-111" target="XCGYx5bU0b4vUzlNKkGI-10">
          <mxGeometry width="50" height="50" relative="1" as="geometry">
            <mxPoint x="410" y="490" as="sourcePoint" />
            <mxPoint x="460" y="440" as="targetPoint" />
          </mxGeometry>
        </mxCell>
        <mxCell id="XCGYx5bU0b4vUzlNKkGI-107" value="" style="endArrow=classic;html=1;rounded=0;entryX=0;entryY=0.5;entryDx=0;entryDy=0;exitX=0;exitY=0.5;exitDx=0;exitDy=0;" edge="1" parent="XCGYx5bU0b4vUzlNKkGI-7" source="XCGYx5bU0b4vUzlNKkGI-111" target="XCGYx5bU0b4vUzlNKkGI-11">
          <mxGeometry width="50" height="50" relative="1" as="geometry">
            <mxPoint x="70" y="380" as="sourcePoint" />
            <mxPoint x="320" y="470" as="targetPoint" />
            <Array as="points">
              <mxPoint x="30" y="380" />
              <mxPoint x="30" y="710" />
            </Array>
          </mxGeometry>
        </mxCell>
        <mxCell id="XCGYx5bU0b4vUzlNKkGI-115" value="" style="endArrow=classic;html=1;rounded=0;exitX=0.5;exitY=0;exitDx=0;exitDy=0;entryX=0;entryY=0.5;entryDx=0;entryDy=0;" edge="1" parent="XCGYx5bU0b4vUzlNKkGI-7" source="XCGYx5bU0b4vUzlNKkGI-111" target="XCGYx5bU0b4vUzlNKkGI-116">
          <mxGeometry width="50" height="50" relative="1" as="geometry">
            <mxPoint x="130" y="340" as="sourcePoint" />
            <mxPoint x="60" y="770" as="targetPoint" />
            <Array as="points">
              <mxPoint x="115" y="330" />
              <mxPoint x="10" y="330" />
              <mxPoint x="10" y="800" />
            </Array>
          </mxGeometry>
        </mxCell>
        <mxCell id="XCGYx5bU0b4vUzlNKkGI-116" value="Memhapus Data" style="rounded=1;whiteSpace=wrap;html=1;" vertex="1" parent="XCGYx5bU0b4vUzlNKkGI-7">
          <mxGeometry x="55" y="770" width="120" height="60" as="geometry" />
        </mxCell>
        <mxCell id="XCGYx5bU0b4vUzlNKkGI-119" value="" style="ellipse;html=1;shape=endState;fillColor=#000000;strokeColor=#ff0000;" vertex="1" parent="XCGYx5bU0b4vUzlNKkGI-7">
          <mxGeometry x="95" y="870" width="30" height="30" as="geometry" />
        </mxCell>
        <mxCell id="XCGYx5bU0b4vUzlNKkGI-17" value="system" style="swimlane;whiteSpace=wrap;html=1;" vertex="1" parent="1">
          <mxGeometry x="920" y="70" width="260" height="940" as="geometry">
            <mxRectangle x="920" y="70" width="80" height="30" as="alternateBounds" />
          </mxGeometry>
        </mxCell>
        <mxCell id="XCGYx5bU0b4vUzlNKkGI-22" value="Tampilan dashboard" style="rounded=1;whiteSpace=wrap;html=1;" vertex="1" parent="XCGYx5bU0b4vUzlNKkGI-17">
          <mxGeometry x="70" y="140" width="120" height="60" as="geometry" />
        </mxCell>
        <mxCell id="XCGYx5bU0b4vUzlNKkGI-104" value="Tampilan article" style="rounded=1;whiteSpace=wrap;html=1;" vertex="1" parent="XCGYx5bU0b4vUzlNKkGI-17">
          <mxGeometry x="70" y="350" width="120" height="60" as="geometry" />
        </mxCell>
        <mxCell id="XCGYx5bU0b4vUzlNKkGI-23" value="Tampilan Tambah Data" style="rounded=1;whiteSpace=wrap;html=1;" vertex="1" parent="XCGYx5bU0b4vUzlNKkGI-17">
          <mxGeometry x="70" y="440" width="120" height="60" as="geometry" />
        </mxCell>
        <mxCell id="XCGYx5bU0b4vUzlNKkGI-37" value="databes" style="swimlane;whiteSpace=wrap;html=1;" vertex="1" parent="1">
          <mxGeometry x="1180" y="70" width="260" height="940" as="geometry">
            <mxRectangle x="1210" y="70" width="80" height="30" as="alternateBounds" />
          </mxGeometry>
        </mxCell>
        <mxCell id="XCGYx5bU0b4vUzlNKkGI-39" value="menghapus data" style="rounded=1;whiteSpace=wrap;html=1;" vertex="1" parent="XCGYx5bU0b4vUzlNKkGI-37">
          <mxGeometry x="70" y="770" width="120" height="60" as="geometry" />
        </mxCell>
        <mxCell id="XCGYx5bU0b4vUzlNKkGI-38" value="menyimpan data" style="rounded=1;whiteSpace=wrap;html=1;" vertex="1" parent="XCGYx5bU0b4vUzlNKkGI-37">
          <mxGeometry x="70" y="550" width="120" height="60" as="geometry" />
        </mxCell>
        <mxCell id="XCGYx5bU0b4vUzlNKkGI-101" value="" style="endArrow=classic;html=1;rounded=0;exitX=0.5;exitY=1;exitDx=0;exitDy=0;entryX=1;entryY=0.5;entryDx=0;entryDy=0;" edge="1" parent="1" source="XCGYx5bU0b4vUzlNKkGI-22" target="XCGYx5bU0b4vUzlNKkGI-100">
          <mxGeometry width="50" height="50" relative="1" as="geometry">
            <mxPoint x="875" y="250" as="sourcePoint" />
            <mxPoint x="865" y="340" as="targetPoint" />
            <Array as="points">
              <mxPoint x="1050" y="330" />
            </Array>
          </mxGeometry>
        </mxCell>
        <mxCell id="XCGYx5bU0b4vUzlNKkGI-102" value="" style="endArrow=classic;html=1;rounded=0;entryX=0.5;entryY=0;entryDx=0;entryDy=0;exitX=0.5;exitY=1;exitDx=0;exitDy=0;" edge="1" parent="1" source="XCGYx5bU0b4vUzlNKkGI-100" target="XCGYx5bU0b4vUzlNKkGI-104">
          <mxGeometry width="50" height="50" relative="1" as="geometry">
            <mxPoint x="821" y="370" as="sourcePoint" />
            <mxPoint x="1056" y="410" as="targetPoint" />
            <Array as="points">
              <mxPoint x="805" y="390" />
              <mxPoint x="1050" y="390" />
            </Array>
          </mxGeometry>
        </mxCell>
        <mxCell id="XCGYx5bU0b4vUzlNKkGI-106" value="" style="endArrow=classic;html=1;rounded=0;entryX=0.5;entryY=1;entryDx=0;entryDy=0;exitX=0.5;exitY=0;exitDx=0;exitDy=0;" edge="1" parent="1" source="XCGYx5bU0b4vUzlNKkGI-38" target="XCGYx5bU0b4vUzlNKkGI-104">
          <mxGeometry width="50" height="50" relative="1" as="geometry">
            <mxPoint x="1060" y="600" as="sourcePoint" />
            <mxPoint x="1110" y="550" as="targetPoint" />
            <Array as="points">
              <mxPoint x="1310" y="500" />
              <mxPoint x="1050" y="500" />
            </Array>
          </mxGeometry>
        </mxCell>
        <mxCell id="XCGYx5bU0b4vUzlNKkGI-113" value="" style="endArrow=classic;html=1;rounded=0;entryX=1;entryY=0.5;entryDx=0;entryDy=0;exitX=0;exitY=0.5;exitDx=0;exitDy=0;" edge="1" parent="1" source="XCGYx5bU0b4vUzlNKkGI-104" target="XCGYx5bU0b4vUzlNKkGI-111">
          <mxGeometry width="50" height="50" relative="1" as="geometry">
            <mxPoint x="1100" y="560" as="sourcePoint" />
            <mxPoint x="1150" y="510" as="targetPoint" />
          </mxGeometry>
        </mxCell>
        <mxCell id="XCGYx5bU0b4vUzlNKkGI-117" value="" style="endArrow=classic;html=1;rounded=0;entryX=0;entryY=0.5;entryDx=0;entryDy=0;exitX=1;exitY=0.5;exitDx=0;exitDy=0;" edge="1" parent="1" source="XCGYx5bU0b4vUzlNKkGI-116" target="XCGYx5bU0b4vUzlNKkGI-39">
          <mxGeometry width="50" height="50" relative="1" as="geometry">
            <mxPoint x="970" y="770" as="sourcePoint" />
            <mxPoint x="1020" y="720" as="targetPoint" />
          </mxGeometry>
        </mxCell>
        <mxCell id="XCGYx5bU0b4vUzlNKkGI-118" value="" style="endArrow=none;html=1;rounded=0;exitX=1;exitY=0.5;exitDx=0;exitDy=0;startFill=0;" edge="1" parent="1" source="XCGYx5bU0b4vUzlNKkGI-39">
          <mxGeometry width="50" height="50" relative="1" as="geometry">
            <mxPoint x="970" y="670" as="sourcePoint" />
            <mxPoint x="1310" y="500" as="targetPoint" />
            <Array as="points">
              <mxPoint x="1400" y="870" />
              <mxPoint x="1400" y="500" />
            </Array>
          </mxGeometry>
        </mxCell>
        <mxCell id="XCGYx5bU0b4vUzlNKkGI-103" value="" style="endArrow=classic;html=1;rounded=0;exitX=1;exitY=0.5;exitDx=0;exitDy=0;entryX=0;entryY=0.5;entryDx=0;entryDy=0;" edge="1" parent="1" source="XCGYx5bU0b4vUzlNKkGI-10" target="XCGYx5bU0b4vUzlNKkGI-23">
          <mxGeometry width="50" height="50" relative="1" as="geometry">
            <mxPoint x="959" y="590" as="sourcePoint" />
            <mxPoint x="969" y="540" as="targetPoint" />
          </mxGeometry>
        </mxCell>
        <mxCell id="XCGYx5bU0b4vUzlNKkGI-25" value="" style="endArrow=classic;html=1;rounded=0;exitX=1;exitY=0.5;exitDx=0;exitDy=0;entryX=0;entryY=0.5;entryDx=0;entryDy=0;" edge="1" parent="1" source="XCGYx5bU0b4vUzlNKkGI-18" target="XCGYx5bU0b4vUzlNKkGI-38">
          <mxGeometry width="50" height="50" relative="1" as="geometry">
            <mxPoint x="1115" y="515" as="sourcePoint" />
            <mxPoint x="1050" y="748" as="targetPoint" />
          </mxGeometry>
        </mxCell>
        <mxCell id="XCGYx5bU0b4vUzlNKkGI-36" value="" style="endArrow=classic;html=1;rounded=0;exitX=1;exitY=0.5;exitDx=0;exitDy=0;entryX=0;entryY=0.5;entryDx=0;entryDy=0;" edge="1" parent="1" source="XCGYx5bU0b4vUzlNKkGI-54" target="XCGYx5bU0b4vUzlNKkGI-22">
          <mxGeometry width="50" height="50" relative="1" as="geometry">
            <mxPoint x="860" y="239.41" as="sourcePoint" />
            <mxPoint x="1000" y="240" as="targetPoint" />
          </mxGeometry>
        </mxCell>
        <mxCell id="XCGYx5bU0b4vUzlNKkGI-120" value="" style="endArrow=classic;html=1;rounded=0;entryX=1;entryY=0.5;entryDx=0;entryDy=0;exitX=1;exitY=0.5;exitDx=0;exitDy=0;" edge="1" parent="1" source="XCGYx5bU0b4vUzlNKkGI-104" target="XCGYx5bU0b4vUzlNKkGI-119">
          <mxGeometry width="50" height="50" relative="1" as="geometry">
            <mxPoint x="1050" y="920" as="sourcePoint" />
            <mxPoint x="1100" y="870" as="targetPoint" />
            <Array as="points">
              <mxPoint x="1420" y="450" />
              <mxPoint x="1420" y="955" />
            </Array>
          </mxGeometry>
        </mxCell>
      </root>
    </mxGraphModel>
  </diagram>
  <diagram id="GwJvM2C-ZJTqx6TQ_7XD" name="Use Case">
    <mxGraphModel dx="1246" dy="664" grid="1" gridSize="10" guides="1" tooltips="1" connect="1" arrows="1" fold="1" page="1" pageScale="1" pageWidth="827" pageHeight="1169" math="0" shadow="0">
      <root>
        <mxCell id="0" />
        <mxCell id="1" parent="0" />
        <mxCell id="SlymeBBUpaYdqVY583RF-1" value="Vertical Container" style="swimlane;whiteSpace=wrap;html=1;" vertex="1" parent="1">
          <mxGeometry x="310" y="20" width="990" height="730" as="geometry" />
        </mxCell>
        <mxCell id="SlymeBBUpaYdqVY583RF-2" value="Home" style="ellipse;whiteSpace=wrap;html=1;" vertex="1" parent="SlymeBBUpaYdqVY583RF-1">
          <mxGeometry x="90" y="70" width="120" height="80" as="geometry" />
        </mxCell>
        <mxCell id="SlymeBBUpaYdqVY583RF-3" value="profile perusahaan" style="ellipse;whiteSpace=wrap;html=1;" vertex="1" parent="SlymeBBUpaYdqVY583RF-1">
          <mxGeometry x="190" y="170" width="120" height="80" as="geometry" />
        </mxCell>
        <mxCell id="SlymeBBUpaYdqVY583RF-4" value="product" style="ellipse;whiteSpace=wrap;html=1;" vertex="1" parent="SlymeBBUpaYdqVY583RF-1">
          <mxGeometry x="210" y="380" width="120" height="80" as="geometry" />
        </mxCell>
        <mxCell id="SlymeBBUpaYdqVY583RF-5" value="article" style="ellipse;whiteSpace=wrap;html=1;" vertex="1" parent="SlymeBBUpaYdqVY583RF-1">
          <mxGeometry x="220" y="270" width="120" height="80" as="geometry" />
        </mxCell>
        <mxCell id="SlymeBBUpaYdqVY583RF-6" value="gallery" style="ellipse;whiteSpace=wrap;html=1;" vertex="1" parent="SlymeBBUpaYdqVY583RF-1">
          <mxGeometry x="180" y="485" width="120" height="80" as="geometry" />
        </mxCell>
        <mxCell id="SlymeBBUpaYdqVY583RF-7" value="contact" style="ellipse;whiteSpace=wrap;html=1;" vertex="1" parent="SlymeBBUpaYdqVY583RF-1">
          <mxGeometry x="80" y="560" width="120" height="80" as="geometry" />
        </mxCell>
        <mxCell id="SlymeBBUpaYdqVY583RF-8" value="Login" style="ellipse;whiteSpace=wrap;html=1;" vertex="1" parent="SlymeBBUpaYdqVY583RF-1">
          <mxGeometry x="670" y="340" width="120" height="80" as="geometry" />
        </mxCell>
        <mxCell id="SlymeBBUpaYdqVY583RF-9" value="" style="endArrow=none;html=1;rounded=0;entryX=0;entryY=0.5;entryDx=0;entryDy=0;exitX=1;exitY=0.5;exitDx=0;exitDy=0;endFill=0;startArrow=classic;startFill=1;dashed=1;" edge="1" parent="SlymeBBUpaYdqVY583RF-1" source="SlymeBBUpaYdqVY583RF-2" target="SlymeBBUpaYdqVY583RF-8">
          <mxGeometry relative="1" as="geometry">
            <mxPoint x="340" y="310" as="sourcePoint" />
            <mxPoint x="440" y="310" as="targetPoint" />
          </mxGeometry>
        </mxCell>
        <mxCell id="SlymeBBUpaYdqVY583RF-10" value="&amp;lt;&amp;lt;include&amp;gt;&amp;gt;" style="edgeLabel;resizable=0;html=1;;align=center;verticalAlign=middle;" connectable="0" vertex="1" parent="SlymeBBUpaYdqVY583RF-9">
          <mxGeometry relative="1" as="geometry" />
        </mxCell>
        <mxCell id="SlymeBBUpaYdqVY583RF-11" value="" style="endArrow=none;html=1;rounded=0;entryX=0;entryY=0.5;entryDx=0;entryDy=0;exitX=1;exitY=0.5;exitDx=0;exitDy=0;endFill=0;startArrow=classic;startFill=1;dashed=1;" edge="1" parent="SlymeBBUpaYdqVY583RF-1" source="SlymeBBUpaYdqVY583RF-3" target="SlymeBBUpaYdqVY583RF-8">
          <mxGeometry relative="1" as="geometry">
            <mxPoint x="220" y="120" as="sourcePoint" />
            <mxPoint x="580" y="375" as="targetPoint" />
          </mxGeometry>
        </mxCell>
        <mxCell id="SlymeBBUpaYdqVY583RF-12" value="&amp;lt;&amp;lt;include&amp;gt;&amp;gt;" style="edgeLabel;resizable=0;html=1;;align=center;verticalAlign=middle;" connectable="0" vertex="1" parent="SlymeBBUpaYdqVY583RF-11">
          <mxGeometry relative="1" as="geometry" />
        </mxCell>
        <mxCell id="SlymeBBUpaYdqVY583RF-13" value="" style="endArrow=none;html=1;rounded=0;entryX=0;entryY=0.5;entryDx=0;entryDy=0;exitX=1;exitY=0.5;exitDx=0;exitDy=0;endFill=0;startArrow=classic;startFill=1;dashed=1;" edge="1" parent="SlymeBBUpaYdqVY583RF-1" source="SlymeBBUpaYdqVY583RF-5" target="SlymeBBUpaYdqVY583RF-8">
          <mxGeometry relative="1" as="geometry">
            <mxPoint x="320" y="220" as="sourcePoint" />
            <mxPoint x="580" y="375" as="targetPoint" />
          </mxGeometry>
        </mxCell>
        <mxCell id="SlymeBBUpaYdqVY583RF-14" value="&amp;lt;&amp;lt;include&amp;gt;&amp;gt;" style="edgeLabel;resizable=0;html=1;;align=center;verticalAlign=middle;" connectable="0" vertex="1" parent="SlymeBBUpaYdqVY583RF-13">
          <mxGeometry relative="1" as="geometry" />
        </mxCell>
        <mxCell id="SlymeBBUpaYdqVY583RF-15" value="" style="endArrow=none;html=1;rounded=0;entryX=0;entryY=0.5;entryDx=0;entryDy=0;exitX=1;exitY=0.5;exitDx=0;exitDy=0;endFill=0;startArrow=classic;startFill=1;dashed=1;" edge="1" parent="SlymeBBUpaYdqVY583RF-1" source="SlymeBBUpaYdqVY583RF-4" target="SlymeBBUpaYdqVY583RF-8">
          <mxGeometry relative="1" as="geometry">
            <mxPoint x="350" y="320" as="sourcePoint" />
            <mxPoint x="580" y="375" as="targetPoint" />
          </mxGeometry>
        </mxCell>
        <mxCell id="SlymeBBUpaYdqVY583RF-16" value="&amp;lt;&amp;lt;include&amp;gt;&amp;gt;" style="edgeLabel;resizable=0;html=1;;align=center;verticalAlign=middle;" connectable="0" vertex="1" parent="SlymeBBUpaYdqVY583RF-15">
          <mxGeometry relative="1" as="geometry" />
        </mxCell>
        <mxCell id="SlymeBBUpaYdqVY583RF-17" value="" style="endArrow=none;html=1;rounded=0;entryX=0;entryY=0.5;entryDx=0;entryDy=0;exitX=1;exitY=0.5;exitDx=0;exitDy=0;endFill=0;startArrow=classic;startFill=1;dashed=1;" edge="1" parent="SlymeBBUpaYdqVY583RF-1" source="SlymeBBUpaYdqVY583RF-6" target="SlymeBBUpaYdqVY583RF-8">
          <mxGeometry relative="1" as="geometry">
            <mxPoint x="340" y="430" as="sourcePoint" />
            <mxPoint x="580" y="375" as="targetPoint" />
          </mxGeometry>
        </mxCell>
        <mxCell id="SlymeBBUpaYdqVY583RF-18" value="&amp;lt;&amp;lt;include&amp;gt;&amp;gt;" style="edgeLabel;resizable=0;html=1;;align=center;verticalAlign=middle;" connectable="0" vertex="1" parent="SlymeBBUpaYdqVY583RF-17">
          <mxGeometry relative="1" as="geometry" />
        </mxCell>
        <mxCell id="SlymeBBUpaYdqVY583RF-19" value="" style="endArrow=none;html=1;rounded=0;exitX=1.007;exitY=0.664;exitDx=0;exitDy=0;exitPerimeter=0;endFill=0;startArrow=classic;startFill=1;dashed=1;" edge="1" parent="SlymeBBUpaYdqVY583RF-1" source="SlymeBBUpaYdqVY583RF-7">
          <mxGeometry relative="1" as="geometry">
            <mxPoint x="310" y="535" as="sourcePoint" />
            <mxPoint x="670" y="380" as="targetPoint" />
          </mxGeometry>
        </mxCell>
        <mxCell id="SlymeBBUpaYdqVY583RF-20" value="&amp;lt;&amp;lt;include&amp;gt;&amp;gt;" style="edgeLabel;resizable=0;html=1;;align=center;verticalAlign=middle;" connectable="0" vertex="1" parent="SlymeBBUpaYdqVY583RF-19">
          <mxGeometry relative="1" as="geometry" />
        </mxCell>
        <mxCell id="SlymeBBUpaYdqVY583RF-21" value="User" style="shape=umlActor;verticalLabelPosition=bottom;verticalAlign=top;html=1;outlineConnect=0;" vertex="1" parent="1">
          <mxGeometry x="140" y="120" width="30" height="60" as="geometry" />
        </mxCell>
        <mxCell id="SlymeBBUpaYdqVY583RF-22" value="Admin" style="shape=umlActor;verticalLabelPosition=bottom;verticalAlign=top;html=1;outlineConnect=0;" vertex="1" parent="1">
          <mxGeometry x="140" y="490" width="30" height="60" as="geometry" />
        </mxCell>
        <mxCell id="SlymeBBUpaYdqVY583RF-23" value="" style="endArrow=classic;html=1;rounded=0;entryX=0;entryY=0.5;entryDx=0;entryDy=0;exitX=0.5;exitY=0.5;exitDx=0;exitDy=0;exitPerimeter=0;" edge="1" parent="1" source="SlymeBBUpaYdqVY583RF-21" target="SlymeBBUpaYdqVY583RF-2">
          <mxGeometry width="50" height="50" relative="1" as="geometry">
            <mxPoint x="440" y="230" as="sourcePoint" />
            <mxPoint x="490" y="180" as="targetPoint" />
          </mxGeometry>
        </mxCell>
        <mxCell id="SlymeBBUpaYdqVY583RF-24" value="" style="endArrow=classic;html=1;rounded=0;entryX=0;entryY=0.5;entryDx=0;entryDy=0;exitX=0.5;exitY=0.5;exitDx=0;exitDy=0;exitPerimeter=0;" edge="1" parent="1" source="SlymeBBUpaYdqVY583RF-21" target="SlymeBBUpaYdqVY583RF-3">
          <mxGeometry width="50" height="50" relative="1" as="geometry">
            <mxPoint x="180" y="159" as="sourcePoint" />
            <mxPoint x="410" y="140" as="targetPoint" />
          </mxGeometry>
        </mxCell>
        <mxCell id="SlymeBBUpaYdqVY583RF-25" value="" style="endArrow=classic;html=1;rounded=0;entryX=0;entryY=0.5;entryDx=0;entryDy=0;exitX=0.5;exitY=0.5;exitDx=0;exitDy=0;exitPerimeter=0;" edge="1" parent="1" source="SlymeBBUpaYdqVY583RF-21" target="SlymeBBUpaYdqVY583RF-5">
          <mxGeometry width="50" height="50" relative="1" as="geometry">
            <mxPoint x="165" y="160" as="sourcePoint" />
            <mxPoint x="510" y="240" as="targetPoint" />
          </mxGeometry>
        </mxCell>
        <mxCell id="SlymeBBUpaYdqVY583RF-26" value="" style="endArrow=classic;html=1;rounded=0;entryX=0.002;entryY=0.355;entryDx=0;entryDy=0;exitX=0.5;exitY=0.5;exitDx=0;exitDy=0;exitPerimeter=0;entryPerimeter=0;" edge="1" parent="1" source="SlymeBBUpaYdqVY583RF-21" target="SlymeBBUpaYdqVY583RF-4">
          <mxGeometry width="50" height="50" relative="1" as="geometry">
            <mxPoint x="165" y="160" as="sourcePoint" />
            <mxPoint x="540" y="340" as="targetPoint" />
          </mxGeometry>
        </mxCell>
        <mxCell id="SlymeBBUpaYdqVY583RF-27" value="" style="endArrow=classic;html=1;rounded=0;entryX=0;entryY=0.5;entryDx=0;entryDy=0;exitX=0.5;exitY=0.5;exitDx=0;exitDy=0;exitPerimeter=0;" edge="1" parent="1" source="SlymeBBUpaYdqVY583RF-21" target="SlymeBBUpaYdqVY583RF-6">
          <mxGeometry width="50" height="50" relative="1" as="geometry">
            <mxPoint x="165" y="160" as="sourcePoint" />
            <mxPoint x="530" y="438" as="targetPoint" />
          </mxGeometry>
        </mxCell>
        <mxCell id="SlymeBBUpaYdqVY583RF-28" value="" style="endArrow=classic;html=1;rounded=0;entryX=0.083;entryY=0.5;entryDx=0;entryDy=0;exitX=0.5;exitY=0.5;exitDx=0;exitDy=0;exitPerimeter=0;entryPerimeter=0;" edge="1" parent="1" source="SlymeBBUpaYdqVY583RF-21" target="SlymeBBUpaYdqVY583RF-7">
          <mxGeometry width="50" height="50" relative="1" as="geometry">
            <mxPoint x="165" y="160" as="sourcePoint" />
            <mxPoint x="500" y="555" as="targetPoint" />
          </mxGeometry>
        </mxCell>
        <mxCell id="SlymeBBUpaYdqVY583RF-29" value="" style="endArrow=classic;html=1;rounded=0;entryX=0.027;entryY=0.605;entryDx=0;entryDy=0;exitX=0.5;exitY=0.5;exitDx=0;exitDy=0;exitPerimeter=0;entryPerimeter=0;" edge="1" parent="1" source="SlymeBBUpaYdqVY583RF-22" target="SlymeBBUpaYdqVY583RF-7">
          <mxGeometry width="50" height="50" relative="1" as="geometry">
            <mxPoint x="165" y="160" as="sourcePoint" />
            <mxPoint x="410" y="630" as="targetPoint" />
          </mxGeometry>
        </mxCell>
        <mxCell id="SlymeBBUpaYdqVY583RF-30" value="" style="endArrow=classic;html=1;rounded=0;entryX=0;entryY=0.5;entryDx=0;entryDy=0;exitX=0.5;exitY=0.5;exitDx=0;exitDy=0;exitPerimeter=0;" edge="1" parent="1" source="SlymeBBUpaYdqVY583RF-22" target="SlymeBBUpaYdqVY583RF-6">
          <mxGeometry width="50" height="50" relative="1" as="geometry">
            <mxPoint x="165" y="530" as="sourcePoint" />
            <mxPoint x="403" y="638" as="targetPoint" />
          </mxGeometry>
        </mxCell>
        <mxCell id="SlymeBBUpaYdqVY583RF-31" value="" style="endArrow=classic;html=1;rounded=0;entryX=0;entryY=0.5;entryDx=0;entryDy=0;exitX=0.5;exitY=0.5;exitDx=0;exitDy=0;exitPerimeter=0;" edge="1" parent="1" source="SlymeBBUpaYdqVY583RF-22" target="SlymeBBUpaYdqVY583RF-4">
          <mxGeometry width="50" height="50" relative="1" as="geometry">
            <mxPoint x="165" y="530" as="sourcePoint" />
            <mxPoint x="500" y="555" as="targetPoint" />
          </mxGeometry>
        </mxCell>
        <mxCell id="SlymeBBUpaYdqVY583RF-32" value="" style="endArrow=classic;html=1;rounded=0;entryX=0;entryY=0.5;entryDx=0;entryDy=0;exitX=0.5;exitY=0.5;exitDx=0;exitDy=0;exitPerimeter=0;" edge="1" parent="1" source="SlymeBBUpaYdqVY583RF-22" target="SlymeBBUpaYdqVY583RF-5">
          <mxGeometry width="50" height="50" relative="1" as="geometry">
            <mxPoint x="165" y="530" as="sourcePoint" />
            <mxPoint x="530" y="450" as="targetPoint" />
          </mxGeometry>
        </mxCell>
        <mxCell id="SlymeBBUpaYdqVY583RF-33" value="" style="endArrow=classic;html=1;rounded=0;entryX=-0.017;entryY=0.642;entryDx=0;entryDy=0;exitX=0.5;exitY=0.5;exitDx=0;exitDy=0;exitPerimeter=0;entryPerimeter=0;" edge="1" parent="1" source="SlymeBBUpaYdqVY583RF-22" target="SlymeBBUpaYdqVY583RF-3">
          <mxGeometry width="50" height="50" relative="1" as="geometry">
            <mxPoint x="165" y="530" as="sourcePoint" />
            <mxPoint x="540" y="340" as="targetPoint" />
          </mxGeometry>
        </mxCell>
        <mxCell id="SlymeBBUpaYdqVY583RF-34" value="" style="endArrow=classic;html=1;rounded=0;entryX=0;entryY=0.5;entryDx=0;entryDy=0;exitX=0.5;exitY=0.5;exitDx=0;exitDy=0;exitPerimeter=0;" edge="1" parent="1" source="SlymeBBUpaYdqVY583RF-22" target="SlymeBBUpaYdqVY583RF-2">
          <mxGeometry width="50" height="50" relative="1" as="geometry">
            <mxPoint x="165" y="530" as="sourcePoint" />
            <mxPoint x="508" y="251" as="targetPoint" />
          </mxGeometry>
        </mxCell>
      </root>
    </mxGraphModel>
  </diagram>
</mxfile>
